<svg width="320" height="59" viewBox="0 0 320 59" fill="none" xmlns="http://www.w3.org/2000/svg">
<g clip-path="url(#clip0_1266_5212)">
<path d="M247.135 52.0193C263.302 47.6873 277.328 41.3118 286.936 34.4712C291.737 31.0534 295.481 27.4866 297.825 23.9582C300.169 20.4315 301.18 16.8338 300.273 13.4498C299.366 10.0659 296.692 7.45566 292.899 5.57307C289.105 3.68955 284.079 2.47265 278.212 1.91299C266.471 0.792896 251.137 2.28469 234.969 6.6167C218.802 10.9487 204.776 17.3242 195.168 24.1647C190.367 27.5826 186.623 31.1494 184.279 34.6778C181.936 38.2045 180.925 41.8022 181.831 45.1861C182.738 48.5701 185.412 51.1803 189.205 53.0629C193 54.9464 198.025 56.1633 203.892 56.723C215.633 57.8431 230.968 56.3513 247.135 52.0193Z" fill="url(#paint0_linear_1266_5212)" stroke="black" stroke-width="2.04366"/>
<path d="M216.516 21.6973C215.918 20.9824 215.062 20.625 213.949 20.625C212.426 20.625 211.389 21.1934 210.838 22.3301C210.521 22.9863 210.334 24.0293 210.275 25.459H205.406C205.488 23.291 205.881 21.5391 206.584 20.2031C207.92 17.6602 210.293 16.3887 213.703 16.3887C216.398 16.3887 218.543 17.1387 220.137 18.6387C221.73 20.127 222.527 22.1016 222.527 24.5625C222.527 26.4492 221.965 28.125 220.84 29.5898C220.102 30.5625 218.889 31.6465 217.201 32.8418L215.197 34.2656C213.943 35.1562 213.082 35.8008 212.613 36.1992C212.156 36.5977 211.77 37.0605 211.453 37.5879H222.58V42H205.125C205.172 40.1719 205.564 38.502 206.303 36.9902C207.018 35.291 208.705 33.4922 211.365 31.5938C213.674 29.9414 215.168 28.7578 215.848 28.043C216.891 26.9297 217.412 25.7109 217.412 24.3867C217.412 23.3086 217.113 22.4121 216.516 21.6973ZM231.433 42.6328C228.187 42.6328 225.908 41.4961 224.595 39.2227C223.294 36.9492 222.644 33.709 222.644 29.502C222.644 25.2949 223.294 22.0488 224.595 19.7637C225.908 17.4785 228.187 16.3359 231.433 16.3359C234.679 16.3359 236.959 17.4785 238.271 19.7637C239.572 22.0488 240.222 25.2949 240.222 29.502C240.222 33.709 239.566 36.9492 238.253 39.2227C236.953 41.4961 234.679 42.6328 231.433 42.6328ZM234.369 36.2168C234.826 34.6699 235.054 32.4316 235.054 29.502C235.054 26.4316 234.82 24.1582 234.351 22.6816C233.894 21.2051 232.921 20.4668 231.433 20.4668C229.945 20.4668 228.96 21.2051 228.48 22.6816C228 24.1582 227.759 26.4316 227.759 29.502C227.759 32.4316 228 34.6758 228.48 36.2344C228.96 37.7812 229.945 38.5547 231.433 38.5547C232.921 38.5547 233.9 37.7754 234.369 36.2168ZM248.952 42.6328C245.706 42.6328 243.427 41.4961 242.114 39.2227C240.814 36.9492 240.163 33.709 240.163 29.502C240.163 25.2949 240.814 22.0488 242.114 19.7637C243.427 17.4785 245.706 16.3359 248.952 16.3359C252.198 16.3359 254.478 17.4785 255.79 19.7637C257.091 22.0488 257.741 25.2949 257.741 29.502C257.741 33.709 257.085 36.9492 255.772 39.2227C254.472 41.4961 252.198 42.6328 248.952 42.6328ZM251.888 36.2168C252.345 34.6699 252.573 32.4316 252.573 29.502C252.573 26.4316 252.339 24.1582 251.87 22.6816C251.413 21.2051 250.44 20.4668 248.952 20.4668C247.464 20.4668 246.48 21.2051 245.999 22.6816C245.519 24.1582 245.278 26.4316 245.278 29.502C245.278 32.4316 245.519 34.6758 245.999 36.2344C246.48 37.7812 247.464 38.5547 248.952 38.5547C250.44 38.5547 251.419 37.7754 251.888 36.2168ZM266.471 42.6328C263.225 42.6328 260.946 41.4961 259.633 39.2227C258.333 36.9492 257.682 33.709 257.682 29.502C257.682 25.2949 258.333 22.0488 259.633 19.7637C260.946 17.4785 263.225 16.3359 266.471 16.3359C269.717 16.3359 271.997 17.4785 273.309 19.7637C274.61 22.0488 275.26 25.2949 275.26 29.502C275.26 33.709 274.604 36.9492 273.292 39.2227C271.991 41.4961 269.717 42.6328 266.471 42.6328ZM269.407 36.2168C269.864 34.6699 270.092 32.4316 270.092 29.502C270.092 26.4316 269.858 24.1582 269.389 22.6816C268.932 21.2051 267.96 20.4668 266.471 20.4668C264.983 20.4668 263.999 21.2051 263.518 22.6816C263.038 24.1582 262.797 26.4316 262.797 29.502C262.797 32.4316 263.038 34.6758 263.518 36.2344C263.999 37.7812 264.983 38.5547 266.471 38.5547C267.96 38.5547 268.938 37.7754 269.407 36.2168Z" fill="black"/>
<path d="M16.543 41.1367C16.4518 41.1367 16.3802 41.013 16.3281 40.7656C16.2891 40.5182 16.2891 40.2708 16.3281 40.0234C16.3672 39.776 16.4388 39.6523 16.543 39.6523C17.5195 39.6523 18.2617 39.457 18.7695 39.0664C19.2904 38.6758 19.5508 38.1094 19.5508 37.3672V17.9922C19.5508 16.5599 18.5026 15.8438 16.4062 15.8438C16.2891 15.8438 16.2109 15.7201 16.1719 15.4727C16.1328 15.2253 16.1328 14.9779 16.1719 14.7305C16.2109 14.4831 16.2891 14.3594 16.4062 14.3594C17.6172 14.4375 19.1406 14.4766 20.9766 14.4766C21.3672 14.4766 21.7773 14.4701 22.207 14.457C22.6367 14.444 23.0794 14.431 23.5352 14.418C24.4206 14.3789 25.2148 14.3594 25.918 14.3594C27.2852 14.3594 28.5091 14.5938 29.5898 15.0625C30.6706 15.5312 31.5234 16.2409 32.1484 17.1914C32.7734 18.1419 33.0859 19.3268 33.0859 20.7461C33.0859 21.6445 32.9362 22.4714 32.6367 23.2266C32.3503 23.9688 31.9271 24.6263 31.3672 25.1992C30.8073 25.7591 30.1237 26.2214 29.3164 26.5859V26.7227C30.332 27.0221 31.25 27.5169 32.0703 28.207C32.8906 28.8841 33.5352 29.724 34.0039 30.7266C34.4727 31.7292 34.707 32.8359 34.707 34.0469C34.707 36.4557 33.9453 38.2396 32.4219 39.3984C30.9115 40.5573 28.75 41.1367 25.9375 41.1367C25.5729 41.1367 25.1888 41.1302 24.7852 41.1172C24.3815 41.1042 23.9648 41.0911 23.5352 41.0781C23.0794 41.0521 22.6367 41.0326 22.207 41.0195C21.7773 41.0065 21.3672 41 20.9766 41C19.401 41 17.9232 41.0456 16.543 41.1367ZM25.7031 39.8867C27.526 39.8867 28.8932 39.3659 29.8047 38.3242C30.7161 37.2826 31.1719 35.7331 31.1719 33.6758C31.1719 31.3711 30.4492 29.7565 29.0039 28.832C27.5586 27.9076 25.638 27.4453 23.2422 27.4453H22.6758V35.8047C22.6758 37.1589 22.9297 38.181 23.4375 38.8711C23.9453 39.5482 24.7005 39.8867 25.7031 39.8867ZM24.0234 26.2344C25.9245 26.2344 27.3633 25.7786 28.3398 24.8672C29.3164 23.9557 29.8047 22.6016 29.8047 20.8047C29.8047 19.0599 29.2708 17.7513 28.2031 16.8789C27.1484 15.9935 25.612 15.5508 23.5938 15.5508C23.2943 15.5508 23.0664 15.6615 22.9102 15.8828C22.7539 16.1042 22.6758 16.4297 22.6758 16.8594V26.2344H24.0234ZM41.25 41.4688C40.5469 41.4688 39.9284 41.319 39.3945 41.0195C38.8737 40.7331 38.4701 40.3294 38.1836 39.8086C37.8971 39.2747 37.7539 38.6628 37.7539 37.9727C37.7539 37.0352 38.0729 36.1693 38.7109 35.375C39.349 34.5807 40.3516 33.7799 41.7188 32.9727L45.1758 30.9414V26.8008C45.1758 26.1497 44.974 25.668 44.5703 25.3555C44.1667 25.043 43.5612 24.8867 42.7539 24.8867C42.194 24.8867 41.7122 24.9714 41.3086 25.1406C40.918 25.3099 40.599 25.5573 40.3516 25.8828C40.2734 25.987 40.2148 26.1628 40.1758 26.4102C40.1497 26.6576 40.1237 27.0938 40.0977 27.7188C40.0716 28.3828 39.9414 28.8841 39.707 29.2227C39.4727 29.5482 39.1471 29.7109 38.7305 29.7109C38.3529 29.7109 38.0664 29.6068 37.8711 29.3984C37.6888 29.1901 37.5977 28.8646 37.5977 28.4219C37.5977 27.5885 37.8971 26.7878 38.4961 26.0195C39.0951 25.2383 39.8828 24.6133 40.8594 24.1445C41.8359 23.6628 42.8646 23.4219 43.9453 23.4219C44.5182 23.4219 45.0521 23.5 45.5469 23.6562C46.0547 23.7995 46.5104 24.0078 46.9141 24.2812C47.3568 24.5807 47.6758 24.9518 47.8711 25.3945C48.0664 25.8242 48.1641 26.4557 48.1641 27.2891V36.9766C48.1641 37.7188 48.2747 38.2852 48.4961 38.6758C48.7174 39.0534 49.0495 39.2422 49.4922 39.2422C49.6875 39.2422 49.8763 39.1901 50.0586 39.0859C50.2539 38.9818 50.4688 38.7995 50.7031 38.5391C50.7812 38.474 50.8789 38.4805 50.9961 38.5586C51.1263 38.6367 51.2305 38.7474 51.3086 38.8906C51.3867 39.0208 51.3997 39.125 51.3477 39.2031C50.918 40.0104 50.4753 40.5898 50.0195 40.9414C49.5638 41.293 48.9844 41.4688 48.2812 41.4688C47.5911 41.4688 46.9922 41.2799 46.4844 40.9023C45.9896 40.5247 45.625 39.9193 45.3906 39.0859C44.9089 39.6719 44.4596 40.1406 44.043 40.4922C43.6263 40.8307 43.1966 41.0781 42.7539 41.2344C42.3112 41.3906 41.8099 41.4688 41.25 41.4688ZM42.793 39.4961C43.1706 39.4961 43.5417 39.3789 43.9062 39.1445C44.2839 38.8971 44.5898 38.5781 44.8242 38.1875C45.0586 37.7839 45.1758 37.3802 45.1758 36.9766V32.2109L44.9219 32.0352C43.8021 32.7253 42.9492 33.3177 42.3633 33.8125C41.7773 34.3073 41.3607 34.7891 41.1133 35.2578C40.8789 35.7266 40.7617 36.2604 40.7617 36.8594C40.7617 37.3672 40.8464 37.8229 41.0156 38.2266C41.1979 38.6172 41.4388 38.9297 41.7383 39.1641C42.0378 39.3854 42.3893 39.4961 42.793 39.4961ZM54.5703 30.3164C54.5703 29.5352 54.5247 28.8776 54.4336 28.3438C54.3424 27.8099 54.1797 27.3932 53.9453 27.0938C53.724 26.7943 53.4115 26.6445 53.0078 26.6445C52.8776 26.6445 52.7865 26.5534 52.7344 26.3711C52.6953 26.1888 52.7018 26.0065 52.7539 25.8242C52.806 25.6289 52.8906 25.5312 53.0078 25.5312C53.5026 25.5312 54.1341 25.3099 54.9023 24.8672C55.6706 24.4245 56.263 24.0078 56.6797 23.6172L56.7188 23.5586C56.875 23.4284 57.0117 23.3307 57.1289 23.2656C57.2461 23.2005 57.3438 23.168 57.4219 23.168C57.5 23.168 57.5586 23.2201 57.5977 23.3242C57.6497 23.4154 57.6758 23.5521 57.6758 23.7344C57.6367 24.0469 57.6042 24.3854 57.5781 24.75C57.5651 25.1146 57.5586 25.4661 57.5586 25.8047L57.7734 25.8633C58.4115 25.0169 59.069 24.3984 59.7461 24.0078C60.4362 23.6172 61.1914 23.4219 62.0117 23.4219C62.9492 23.4219 63.7826 23.6628 64.5117 24.1445C65.2409 24.6263 65.7812 25.2969 66.1328 26.1562C66.3932 26.7812 66.582 27.5365 66.6992 28.4219C66.8294 29.3073 66.8945 30.3164 66.8945 31.4492V37.7383H63.8672V33.0312C63.8672 30.9479 63.8346 29.4375 63.7695 28.5C63.7044 27.5495 63.5482 26.8529 63.3008 26.4102C63.0664 25.9544 62.793 25.6419 62.4805 25.4727C62.181 25.3034 61.8099 25.2188 61.3672 25.2188C60.8594 25.2188 60.4297 25.2969 60.0781 25.4531C59.7266 25.6094 59.3815 25.8242 59.043 26.0977C58.7174 26.332 58.4505 26.638 58.2422 27.0156C58.0339 27.3932 57.8711 27.8685 57.7539 28.4414C57.6367 29.0013 57.5781 29.6654 57.5781 30.4336V37.7383H54.5703V30.3164ZM52.6172 41.1562C52.5 41.1562 52.4154 41.0651 52.3633 40.8828C52.3242 40.6875 52.3242 40.4987 52.3633 40.3164C52.4154 40.1341 52.5 40.043 52.6172 40.043C53.2943 40.043 53.7891 39.9258 54.1016 39.6914C54.4141 39.457 54.5703 39.0469 54.5703 38.4609V36.9375H57.5781V38.4609C57.5781 39.0469 57.7344 39.457 58.0469 39.6914C58.3724 39.9258 58.8802 40.043 59.5703 40.043C59.6875 40.043 59.7656 40.1406 59.8047 40.3359C59.8438 40.5182 59.8372 40.7005 59.7852 40.8828C59.7461 41.0651 59.6745 41.1562 59.5703 41.1562C58.5547 41.0521 57.3958 41 56.0938 41C54.8047 41 53.6458 41.0521 52.6172 41.1562ZM61.9336 41.1562C61.8034 41.1562 61.7188 41.0651 61.6797 40.8828C61.6406 40.6875 61.6406 40.4987 61.6797 40.3164C61.7318 40.1341 61.8164 40.043 61.9336 40.043C62.6107 40.043 63.099 39.9258 63.3984 39.6914C63.7109 39.457 63.8672 39.0469 63.8672 38.4609V36.9375H66.8945V38.4609C66.8945 39.0469 67.0508 39.457 67.3633 39.6914C67.6888 39.9258 68.1966 40.043 68.8867 40.043C69.0039 40.043 69.082 40.1406 69.1211 40.3359C69.1602 40.5182 69.1536 40.7005 69.1016 40.8828C69.0625 41.0651 68.9909 41.1562 68.8867 41.1562C67.8711 41.0521 66.7122 41 65.4102 41C64.1211 41 62.9622 41.0521 61.9336 41.1562ZM73.2422 30.3164C73.2422 29.5352 73.1966 28.8776 73.1055 28.3438C73.0143 27.8099 72.8516 27.3932 72.6172 27.0938C72.3958 26.7943 72.0833 26.6445 71.6797 26.6445C71.5495 26.6445 71.4583 26.5534 71.4062 26.3711C71.3672 26.1888 71.3737 26.0065 71.4258 25.8242C71.4779 25.6289 71.5625 25.5312 71.6797 25.5312C72.1745 25.5312 72.806 25.3099 73.5742 24.8672C74.3424 24.4245 74.9349 24.0078 75.3516 23.6172L75.3906 23.5586C75.5469 23.4284 75.6836 23.3307 75.8008 23.2656C75.918 23.2005 76.0156 23.168 76.0938 23.168C76.1719 23.168 76.2305 23.2201 76.2695 23.3242C76.3216 23.4154 76.3477 23.5521 76.3477 23.7344C76.3086 24.0469 76.276 24.3854 76.25 24.75C76.237 25.1146 76.2305 25.4661 76.2305 25.8047L76.4453 25.8633C77.0833 25.0169 77.7409 24.3984 78.418 24.0078C79.1081 23.6172 79.8633 23.4219 80.6836 23.4219C81.6211 23.4219 82.4544 23.6628 83.1836 24.1445C83.9128 24.6263 84.4531 25.2969 84.8047 26.1562C85.0651 26.7812 85.2539 27.5365 85.3711 28.4219C85.5013 29.3073 85.5664 30.3164 85.5664 31.4492V37.7383H82.5391V33.0312C82.5391 30.9479 82.5065 29.4375 82.4414 28.5C82.3763 27.5495 82.2201 26.8529 81.9727 26.4102C81.7383 25.9544 81.4648 25.6419 81.1523 25.4727C80.8529 25.3034 80.4818 25.2188 80.0391 25.2188C79.5312 25.2188 79.1016 25.2969 78.75 25.4531C78.3984 25.6094 78.0534 25.8242 77.7148 26.0977C77.3893 26.332 77.1224 26.638 76.9141 27.0156C76.7057 27.3932 76.543 27.8685 76.4258 28.4414C76.3086 29.0013 76.25 29.6654 76.25 30.4336V37.7383H73.2422V30.3164ZM71.2891 41.1562C71.1719 41.1562 71.0872 41.0651 71.0352 40.8828C70.9961 40.6875 70.9961 40.4987 71.0352 40.3164C71.0872 40.1341 71.1719 40.043 71.2891 40.043C71.9661 40.043 72.4609 39.9258 72.7734 39.6914C73.0859 39.457 73.2422 39.0469 73.2422 38.4609V36.9375H76.25V38.4609C76.25 39.0469 76.4062 39.457 76.7188 39.6914C77.0443 39.9258 77.5521 40.043 78.2422 40.043C78.3594 40.043 78.4375 40.1406 78.4766 40.3359C78.5156 40.5182 78.5091 40.7005 78.457 40.8828C78.418 41.0651 78.3464 41.1562 78.2422 41.1562C77.2266 41.0521 76.0677 41 74.7656 41C73.4766 41 72.3177 41.0521 71.2891 41.1562ZM80.6055 41.1562C80.4753 41.1562 80.3906 41.0651 80.3516 40.8828C80.3125 40.6875 80.3125 40.4987 80.3516 40.3164C80.4036 40.1341 80.4883 40.043 80.6055 40.043C81.2826 40.043 81.7708 39.9258 82.0703 39.6914C82.3828 39.457 82.5391 39.0469 82.5391 38.4609V36.9375H85.5664V38.4609C85.5664 39.0469 85.7227 39.457 86.0352 39.6914C86.3607 39.9258 86.8685 40.043 87.5586 40.043C87.6758 40.043 87.7539 40.1406 87.793 40.3359C87.832 40.5182 87.8255 40.7005 87.7734 40.8828C87.7344 41.0651 87.6628 41.1562 87.5586 41.1562C86.543 41.0521 85.3841 41 84.082 41C82.793 41 81.6341 41.0521 80.6055 41.1562ZM95.9375 41.4688C94.6615 41.4688 93.5156 41.0846 92.5 40.3164C91.4974 39.5352 90.7227 38.4544 90.1758 37.0742C89.6289 35.681 89.3555 34.0859 89.3555 32.2891C89.3555 30.6094 89.6289 29.0924 90.1758 27.7383C90.7357 26.3841 91.5104 25.3294 92.5 24.5742C93.4896 23.806 94.6029 23.4219 95.8398 23.4219C96.6992 23.4219 97.487 23.6172 98.2031 24.0078C98.9323 24.3854 99.5833 24.9583 100.156 25.7266C100.547 26.2214 100.846 26.7292 101.055 27.25C101.276 27.7708 101.387 28.2331 101.387 28.6367C101.387 29.0404 101.296 29.3529 101.113 29.5742C100.944 29.7956 100.677 29.9062 100.312 29.9062H91.2109V28.5586H98.0469C98.3203 28.5586 98.457 28.4349 98.457 28.1875C98.457 27.5885 98.3203 27.0156 98.0469 26.4688C97.7865 25.9089 97.4349 25.4596 96.9922 25.1211C96.5625 24.7695 96.1198 24.5938 95.6641 24.5938C95.0391 24.5938 94.4727 24.8802 93.9648 25.4531C93.4701 26.026 93.0794 26.8268 92.793 27.8555C92.5195 28.8841 92.3828 30.0625 92.3828 31.3906C92.3828 32.9661 92.5846 34.3398 92.9883 35.5117C93.3919 36.6706 93.9648 37.5625 94.707 38.1875C95.4492 38.8125 96.3151 39.125 97.3047 39.125C97.7865 39.125 98.3008 39.0208 98.8477 38.8125C99.4076 38.5911 99.9674 38.2786 100.527 37.875C100.618 37.8099 100.736 37.8229 100.879 37.9141C101.022 37.9922 101.133 38.1094 101.211 38.2656C101.302 38.4089 101.315 38.5195 101.25 38.5977C100.378 39.6003 99.5182 40.3294 98.6719 40.7852C97.8255 41.2409 96.9141 41.4688 95.9375 41.4688ZM105.332 29.2227C105.332 27.6602 104.857 26.8789 103.906 26.8789C103.789 26.8789 103.704 26.7812 103.652 26.5859C103.613 26.3906 103.613 26.1953 103.652 26C103.704 25.7917 103.789 25.6875 103.906 25.6875C104.206 25.6875 104.609 25.5508 105.117 25.2773C105.638 24.9909 106.139 24.6654 106.621 24.3008C107.103 23.9362 107.422 23.6562 107.578 23.4609C107.773 23.2656 107.936 23.168 108.066 23.168C108.171 23.168 108.255 23.207 108.32 23.2852C108.385 23.3633 108.418 23.4805 108.418 23.6367C108.405 23.7409 108.392 23.8516 108.379 23.9688C108.379 24.0729 108.379 24.1771 108.379 24.2812C108.353 24.5677 108.34 24.9323 108.34 25.375C108.34 25.6484 108.359 25.8503 108.398 25.9805C108.438 26.1107 108.496 26.1758 108.574 26.1758C108.639 26.1758 108.704 26.1497 108.77 26.0977C108.848 26.0326 108.926 25.9414 109.004 25.8242C109.486 25.0169 110.007 24.418 110.566 24.0273C111.139 23.6237 111.771 23.4219 112.461 23.4219C112.839 23.4219 113.171 23.513 113.457 23.6953C113.757 23.8776 113.984 24.125 114.141 24.4375C114.31 24.737 114.395 25.069 114.395 25.4336C114.395 25.7852 114.323 26.1172 114.18 26.4297C114.036 26.7292 113.854 26.9701 113.633 27.1523C113.411 27.3346 113.171 27.4258 112.91 27.4258C112.728 27.4258 112.526 27.3932 112.305 27.3281C112.096 27.25 111.862 27.1198 111.602 26.9375C111.354 26.7682 111.146 26.651 110.977 26.5859C110.807 26.5078 110.651 26.4688 110.508 26.4688C110.052 26.4688 109.655 26.6836 109.316 27.1133C108.991 27.5299 108.743 28.0768 108.574 28.7539C108.418 29.431 108.34 30.1602 108.34 30.9414V37.7578H105.332V29.2227ZM103.398 41.1562C103.281 41.1562 103.197 41.0651 103.145 40.8828C103.105 40.6875 103.105 40.4987 103.145 40.3164C103.197 40.1211 103.281 40.0234 103.398 40.0234C104.076 40.0234 104.564 39.9062 104.863 39.6719C105.176 39.4375 105.332 39.0273 105.332 38.4414V36.9375H108.34V38.4414C108.34 39.0273 108.529 39.4375 108.906 39.6719C109.284 39.9062 109.876 40.0234 110.684 40.0234C110.801 40.0234 110.879 40.1211 110.918 40.3164C110.97 40.5117 110.97 40.7005 110.918 40.8828C110.879 41.0651 110.801 41.1562 110.684 41.1562C109.629 41.0521 108.418 41 107.051 41C105.684 41 104.466 41.0521 103.398 41.1562ZM116.035 41.1367C115.931 41.1367 115.859 41.013 115.82 40.7656C115.781 40.5182 115.781 40.2708 115.82 40.0234C115.872 39.776 115.944 39.6523 116.035 39.6523C118.04 39.6523 119.043 38.8906 119.043 37.3672V17.9922C119.043 16.5599 117.995 15.8438 115.898 15.8438C115.781 15.8438 115.703 15.7201 115.664 15.4727C115.625 15.2253 115.625 14.9779 115.664 14.7305C115.703 14.4831 115.781 14.3594 115.898 14.3594C117.161 14.4375 118.737 14.4766 120.625 14.4766C121.133 14.4766 121.641 14.4701 122.148 14.457C122.656 14.444 123.164 14.431 123.672 14.418C124.688 14.3789 125.697 14.3594 126.699 14.3594C129.069 14.3594 131.217 14.8411 133.145 15.8047C135.072 16.7682 136.595 18.181 137.715 20.043C138.848 21.9049 139.414 24.138 139.414 26.7422C139.414 29.5286 138.932 32.0156 137.969 34.2031C137.018 36.3776 135.645 38.0768 133.848 39.3008C132.051 40.5247 129.941 41.1367 127.52 41.1367C126.947 41.1367 126.374 41.1302 125.801 41.1172C125.228 41.1042 124.655 41.0911 124.082 41.0781C123.509 41.0521 122.936 41.0326 122.363 41.0195C121.79 41.0065 121.211 41 120.625 41C118.984 41 117.454 41.0456 116.035 41.1367ZM126.348 39.9648C128.301 39.9648 129.987 39.4115 131.406 38.3047C132.826 37.1849 133.906 35.6419 134.648 33.6758C135.391 31.7096 135.762 29.4701 135.762 26.957C135.762 24.7695 135.306 22.8099 134.395 21.0781C133.483 19.3464 132.233 17.9922 130.645 17.0156C129.056 16.0391 127.272 15.5508 125.293 15.5508C124.434 15.5508 123.783 15.6159 123.34 15.7461C122.91 15.8633 122.604 16.0846 122.422 16.4102C122.253 16.7227 122.168 17.1914 122.168 17.8164V35.3945C122.168 36.5534 122.298 37.4648 122.559 38.1289C122.832 38.7799 123.268 39.2487 123.867 39.5352C124.466 39.8216 125.293 39.9648 126.348 39.9648ZM148.477 41.4688C147.201 41.4688 146.055 41.0846 145.039 40.3164C144.036 39.5352 143.262 38.4544 142.715 37.0742C142.168 35.681 141.895 34.0859 141.895 32.2891C141.895 30.6094 142.168 29.0924 142.715 27.7383C143.275 26.3841 144.049 25.3294 145.039 24.5742C146.029 23.806 147.142 23.4219 148.379 23.4219C149.238 23.4219 150.026 23.6172 150.742 24.0078C151.471 24.3854 152.122 24.9583 152.695 25.7266C153.086 26.2214 153.385 26.7292 153.594 27.25C153.815 27.7708 153.926 28.2331 153.926 28.6367C153.926 29.0404 153.835 29.3529 153.652 29.5742C153.483 29.7956 153.216 29.9062 152.852 29.9062H143.75V28.5586H150.586C150.859 28.5586 150.996 28.4349 150.996 28.1875C150.996 27.5885 150.859 27.0156 150.586 26.4688C150.326 25.9089 149.974 25.4596 149.531 25.1211C149.102 24.7695 148.659 24.5938 148.203 24.5938C147.578 24.5938 147.012 24.8802 146.504 25.4531C146.009 26.026 145.618 26.8268 145.332 27.8555C145.059 28.8841 144.922 30.0625 144.922 31.3906C144.922 32.9661 145.124 34.3398 145.527 35.5117C145.931 36.6706 146.504 37.5625 147.246 38.1875C147.988 38.8125 148.854 39.125 149.844 39.125C150.326 39.125 150.84 39.0208 151.387 38.8125C151.947 38.5911 152.507 38.2786 153.066 37.875C153.158 37.8099 153.275 37.8229 153.418 37.9141C153.561 37.9922 153.672 38.1094 153.75 38.2656C153.841 38.4089 153.854 38.5195 153.789 38.5977C152.917 39.6003 152.057 40.3294 151.211 40.7852C150.365 41.2409 149.453 41.4688 148.477 41.4688ZM157.773 29.3984C157.773 27.6927 157.253 26.8398 156.211 26.8398C156.094 26.8398 156.009 26.7422 155.957 26.5469C155.918 26.3385 155.918 26.1432 155.957 25.9609C156.009 25.7656 156.094 25.668 156.211 25.668C156.484 25.668 156.868 25.5378 157.363 25.2773C157.871 25.0169 158.366 24.7174 158.848 24.3789C159.329 24.0404 159.655 23.7799 159.824 23.5977C159.967 23.4544 160.091 23.3503 160.195 23.2852C160.312 23.207 160.423 23.168 160.527 23.168C160.632 23.168 160.71 23.194 160.762 23.2461C160.814 23.2852 160.84 23.3503 160.84 23.4414C160.801 24.0924 160.781 24.763 160.781 25.4531L161.074 25.5508C161.569 24.8607 162.174 24.3333 162.891 23.9688C163.62 23.6042 164.401 23.4219 165.234 23.4219C166.432 23.4219 167.513 23.7995 168.477 24.5547C169.453 25.2969 170.215 26.3451 170.762 27.6992C171.322 29.0404 171.602 30.5768 171.602 32.3086C171.602 33.7018 171.432 34.9779 171.094 36.1367C170.755 37.2826 170.267 38.2656 169.629 39.0859C168.991 39.9062 168.229 40.5117 167.344 40.9023C166.471 41.2799 165.397 41.4688 164.121 41.4688C163.444 41.4688 162.845 41.4167 162.324 41.3125C161.816 41.2083 161.413 41.0521 161.113 40.8438C161.022 40.8438 160.944 40.9023 160.879 41.0195C160.814 41.1367 160.781 41.306 160.781 41.5273V48.9492L157.773 48.9883V29.3984ZM155.723 51.918C155.605 51.918 155.521 51.8138 155.469 51.6055C155.43 51.3971 155.43 51.1888 155.469 50.9805C155.521 50.7852 155.605 50.6875 155.723 50.6875C157.09 50.6875 157.773 50.1797 157.773 49.1641V47.6992H160.781V49.1641C160.781 49.6719 160.99 50.0495 161.406 50.2969C161.836 50.5573 162.48 50.6875 163.34 50.6875C163.457 50.6875 163.535 50.7917 163.574 51C163.626 51.2083 163.626 51.4102 163.574 51.6055C163.535 51.8138 163.457 51.918 163.34 51.918C162.598 51.8659 161.96 51.8268 161.426 51.8008C160.905 51.7747 160.254 51.7617 159.473 51.7617C158.691 51.7617 158.053 51.7682 157.559 51.7812C157.064 51.8073 156.452 51.8529 155.723 51.918ZM163.926 40.1016C164.707 40.1016 165.384 39.9193 165.957 39.5547C166.53 39.1901 166.973 38.6562 167.285 37.9531C167.611 37.1979 167.858 36.3646 168.027 35.4531C168.197 34.5417 168.281 33.5456 168.281 32.4648C168.281 30.069 167.93 28.2526 167.227 27.0156C166.523 25.7656 165.488 25.1406 164.121 25.1406C163.535 25.1406 162.988 25.3099 162.48 25.6484C161.973 25.974 161.517 26.4557 161.113 27.0938C160.996 27.276 160.911 27.5234 160.859 27.8359C160.807 28.1484 160.781 28.5065 160.781 28.9102V36.957C160.781 37.9727 161.048 38.7539 161.582 39.3008C162.129 39.8346 162.91 40.1016 163.926 40.1016ZM181.133 41.4688C179.766 41.4688 178.529 41.0781 177.422 40.2969C176.315 39.5026 175.449 38.4219 174.824 37.0547C174.199 35.6745 173.887 34.1315 173.887 32.4258C173.887 30.7331 174.199 29.2031 174.824 27.8359C175.449 26.4688 176.315 25.3945 177.422 24.6133C178.529 23.819 179.766 23.4219 181.133 23.4219C182.5 23.4219 183.73 23.819 184.824 24.6133C185.931 25.3945 186.797 26.4688 187.422 27.8359C188.047 29.2031 188.359 30.7331 188.359 32.4258C188.359 34.1315 188.047 35.6745 187.422 37.0547C186.797 38.4219 185.931 39.5026 184.824 40.2969C183.73 41.0781 182.5 41.4688 181.133 41.4688ZM181.133 40.1406C181.888 40.1406 182.572 39.8021 183.184 39.125C183.796 38.4479 184.277 37.5169 184.629 36.332C184.98 35.1471 185.156 33.8255 185.156 32.3672C185.156 30.9349 184.98 29.6263 184.629 28.4414C184.277 27.2565 183.796 26.3255 183.184 25.6484C182.572 24.9583 181.888 24.6133 181.133 24.6133C180.378 24.6133 179.688 24.9583 179.062 25.6484C178.451 26.3255 177.969 27.2565 177.617 28.4414C177.266 29.6263 177.09 30.9349 177.09 32.3672C177.09 33.8125 177.266 35.1341 177.617 36.332C177.969 37.5169 178.451 38.4479 179.062 39.125C179.688 39.8021 180.378 40.1406 181.133 40.1406ZM196.328 41.4688C195.365 41.4688 194.57 41.2669 193.945 40.8633C193.32 40.4596 192.858 39.8607 192.559 39.0664C192.272 38.2721 192.129 37.2695 192.129 36.0586V25.6289H190.352C190.234 25.6289 190.15 25.5573 190.098 25.4141C190.059 25.2578 190.059 25.1081 190.098 24.9648C190.15 24.8086 190.234 24.7305 190.352 24.7305C190.794 24.7305 191.263 24.5352 191.758 24.1445C192.266 23.7539 192.728 23.2591 193.145 22.6602C193.574 22.0482 193.893 21.4362 194.102 20.8242C194.141 20.7331 194.212 20.681 194.316 20.668C194.421 20.6549 194.551 20.6745 194.707 20.7266C194.863 20.7786 194.974 20.8307 195.039 20.8828C195.104 20.9349 195.137 21.0065 195.137 21.0977V23.832H199.727C199.844 23.832 199.922 23.9818 199.961 24.2812C200.013 24.5807 200.013 24.8802 199.961 25.1797C199.922 25.4792 199.844 25.6289 199.727 25.6289H195.137V34.7305C195.137 35.7721 195.221 36.638 195.391 37.3281C195.56 38.0182 195.827 38.5456 196.191 38.9102C196.556 39.2617 197.038 39.4375 197.637 39.4375C198.066 39.4375 198.444 39.3854 198.77 39.2812C199.108 39.1641 199.421 38.9883 199.707 38.7539C199.772 38.6888 199.863 38.6953 199.98 38.7734C200.098 38.8516 200.189 38.9557 200.254 39.0859C200.332 39.2031 200.352 39.2878 200.312 39.3398C199.753 40.0951 199.154 40.6419 198.516 40.9805C197.891 41.306 197.161 41.4688 196.328 41.4688Z" fill="black"/>
</g>
<defs>
<linearGradient id="paint0_linear_1266_5212" x1="251.026" y1="3.3722" x2="239.961" y2="52.8836" gradientUnits="userSpaceOnUse">
<stop stop-color="#DBDF18"/>
<stop offset="0.354167" stop-color="white"/>
<stop offset="0.625" stop-color="#F7F7F7"/>
<stop offset="1" stop-color="#FAFF00"/>
</linearGradient>
<clipPath id="clip0_1266_5212">
<rect width="320" height="59" fill="white"/>
</clipPath>
</defs>
</svg>
